<svg width="50" height="50" viewBox="0 0 50 50" fill="none" xmlns="http://www.w3.org/2000/svg">
<path d="M33.4698 0.00012207H15.4865C14.5666 0.00012207 13.8211 0.745666 13.8211 1.66552C13.8211 2.58747 14.5666 3.33512 15.4865 3.33512H33.4698C35.7611 3.33512 37.6218 5.19583 37.6218 7.48496V42.515C37.6218 44.8042 35.7611 46.6649 33.4698 46.6649H16.5323C14.2432 46.6649 12.3783 44.8042 12.3783 42.515V7.20565C12.3783 6.28579 11.6348 5.53815 10.7129 5.53815C9.79093 5.53815 9.04749 6.28579 9.04749 7.20565V42.515C9.04749 46.6418 12.4035 49.9999 16.5323 49.9999H33.4698C37.5987 49.9999 40.9547 46.6418 40.9547 42.515V7.48496C40.9547 3.35822 37.5987 0.00012207 33.4698 0.00012207ZM25 21.3374C26.0123 21.3374 26.8313 22.1606 26.8313 23.1687C26.8313 24.0927 27.579 24.8362 28.4967 24.8362C29.4187 24.8362 30.1642 24.0927 30.1642 23.1687C30.1642 20.9069 28.6941 19.002 26.6654 18.3048V17.3597C26.6654 16.4378 25.9199 15.6943 25 15.6943C24.0802 15.6943 23.3346 16.4378 23.3346 17.3597V18.3048C21.3059 19.002 19.84 20.9069 19.84 23.1687C19.84 26.0165 22.1502 28.3329 25 28.3329C26.0123 28.3329 26.8313 29.1561 26.8313 30.1642C26.8313 31.1723 26.0123 31.9955 25 31.9955C23.992 31.9955 23.1729 31.1723 23.1729 30.1642C23.1729 29.2443 22.4211 28.4988 21.5054 28.4988C20.5856 28.4988 19.84 29.2443 19.84 30.1642C19.84 32.426 21.3059 34.3308 23.3346 35.0281V35.971C23.3346 36.8951 24.0802 37.6406 25 37.6406C25.9199 37.6406 26.6654 36.8951 26.6654 35.971V35.0281C28.6941 34.3308 30.1642 32.426 30.1642 30.1642C30.1642 27.3164 27.8499 25 25 25C23.992 25 23.1729 24.1788 23.1729 23.1687C23.1729 22.1606 23.992 21.3374 25 21.3374ZM35.0008 8.33551C35.0008 7.41356 34.2532 6.66801 33.3333 6.66801H16.6688C15.749 6.66801 15.0013 7.41356 15.0013 8.33551C15.0013 9.25747 15.749 9.99881 16.6688 9.99881H33.3333C34.2532 9.99881 35.0008 9.25747 35.0008 8.33551Z" fill="#323232"/>
</svg>
