<svg width="48" height="48" viewBox="0 0 48 48" fill="none" xmlns="http://www.w3.org/2000/svg">
<path d="M24.0078 44.0016C22.7088 44.0016 21.4002 43.8756 20.0976 43.6176C19.014 43.4028 18.3096 42.3504 18.5244 41.2674C18.7392 40.1838 19.7916 39.4794 20.8746 39.6942C26.1318 40.7352 31.5294 39.0978 35.3136 35.3142C41.5518 29.076 41.5518 18.9252 35.3136 12.687C29.0754 6.44881 18.9246 6.44881 12.6864 12.687C8.90282 16.4706 7.26542 21.8682 8.30642 27.126C8.52122 28.2096 7.81682 29.262 6.73322 29.4762C5.64962 29.691 4.59722 28.9866 4.38302 27.903C3.08162 21.333 5.12822 14.5872 9.85802 9.85801C11.7666 7.94941 13.9926 6.47161 16.4754 5.46481C18.8718 4.49281 21.4038 4.00021 24.0006 4.00021C26.5974 4.00021 29.1288 4.49281 31.5258 5.46481C34.008 6.47161 36.2346 7.94941 38.1432 9.85801C40.0518 11.7666 41.5302 13.9926 42.5364 16.4754C43.5084 18.8718 44.001 21.4038 44.001 24.0006C44.001 26.5974 43.5084 29.1288 42.5364 31.5258C41.5296 34.008 40.0518 36.2346 38.1432 38.1432C34.35 41.934 29.2614 44.0016 24.0078 44.0016ZM11.2722 38.7282C10.7604 38.7282 10.2486 38.5332 9.85802 38.1426C9.07682 37.3614 9.07682 36.0954 9.85802 35.3142L23.172 22.0002H16.686C15.5814 22.0002 14.6862 21.105 14.6862 20.0004C14.6862 18.8958 15.5814 18.0006 16.686 18.0006H27.9996C28.2762 18.0006 28.5402 18.057 28.7802 18.1584C28.7814 18.159 28.782 18.159 28.7832 18.1596H28.7838C29.0058 18.2538 29.214 18.3906 29.3964 18.5688L29.397 18.5694C29.3982 18.5706 29.3994 18.5718 29.4006 18.573C29.4012 18.5736 29.4018 18.5742 29.4024 18.5742C29.403 18.5754 29.4042 18.576 29.4048 18.5766C29.4054 18.5772 29.4066 18.5784 29.4072 18.579C29.4078 18.5796 29.4084 18.5802 29.409 18.5808C29.4102 18.582 29.412 18.5838 29.4132 18.585C29.4138 18.5856 29.4144 18.5862 29.4144 18.5862C29.4156 18.5874 29.4162 18.588 29.4174 18.5892C29.4186 18.5904 29.4204 18.5922 29.4216 18.5934C29.622 18.7962 29.7702 19.0314 29.8662 19.2816C29.9352 19.4616 29.979 19.6542 29.9934 19.8546V19.8552C29.9934 19.8564 29.9934 19.8576 29.9934 19.8588C29.997 19.9098 29.9988 19.9614 29.9982 20.013V31.314C29.9982 32.4186 29.103 33.3138 27.9984 33.3138C26.8938 33.3138 25.9986 32.4186 25.9986 31.314V24.8286L12.6846 38.1426C12.2958 38.5326 11.784 38.7282 11.2722 38.7282Z" fill="#979797"/>
</svg>
