<svg width="48" height="48" viewBox="0 0 48 48" fill="none" xmlns="http://www.w3.org/2000/svg">
<path d="M24 43.9998C21.4032 43.9998 18.8718 43.5072 16.4748 42.5352C13.9926 41.5284 11.766 40.0506 9.85737 38.142C5.12817 33.4128 3.08157 26.667 4.38237 20.0976C4.59717 19.014 5.64957 18.3096 6.73257 18.5244C7.81617 18.7392 8.52057 19.7916 8.30577 20.8746C7.26477 26.1318 8.90217 31.5294 12.6858 35.3136C18.924 41.5518 29.0748 41.5518 35.3136 35.3136C41.5518 29.0754 41.5518 18.9246 35.3136 12.6864C31.53 8.90279 26.1324 7.26479 20.8746 8.30639C19.7916 8.52059 18.7386 7.81679 18.5244 6.73319C18.3096 5.64959 19.014 4.59719 20.0976 4.38299C26.667 3.08159 33.4128 5.12819 38.142 9.85799C40.0506 11.7666 41.529 13.9932 42.5352 16.4754C43.5072 18.8718 43.9998 21.4038 43.9998 24.0006C43.9998 26.5974 43.5072 29.1288 42.5352 31.5258C41.5284 34.008 40.0506 36.2346 38.142 38.1432C36.2334 40.0518 34.0068 41.5302 31.5246 42.5364C29.1282 43.5072 26.5968 43.9998 24 43.9998ZM28.0002 30C27.9954 30 27.9906 30 27.9858 30H16.686C15.5814 30 14.6862 29.1048 14.6862 28.0002C14.6862 26.8956 15.5814 26.0004 16.686 26.0004H23.1714L9.85737 12.6864C9.07617 11.9052 9.07617 10.6392 9.85737 9.85799C10.6386 9.07679 11.9046 9.07679 12.6858 9.85799L25.9998 23.172V16.686C25.9998 15.5814 26.895 14.6862 27.9996 14.6862C29.1042 14.6862 30 15.5814 30 16.686V27.9858C30.0006 28.0374 29.9988 28.089 29.9952 28.1406C29.9952 28.1412 29.9952 28.1424 29.9952 28.143C29.9952 28.1436 29.9952 28.1442 29.9952 28.1448C29.9814 28.341 29.9388 28.5294 29.8722 28.7058C29.775 28.9644 29.6226 29.2068 29.4144 29.4144C29.2062 29.622 28.9644 29.775 28.7058 29.8722C28.5294 29.9388 28.341 29.9808 28.1448 29.9952C28.1436 29.9952 28.1424 29.9952 28.1406 29.9952C28.0938 29.9982 28.047 30 28.0002 30Z" fill="#979797"/>
</svg>
