<svg width="199" height="50" viewBox="0 0 199 50" fill="none" xmlns="http://www.w3.org/2000/svg">
<g clip-path="url(#clip0_5_1040)">
<path d="M36.6258 0.0055835L13.6701 1.58684C11.7234 1.72129 10.8406 4.05261 12.2199 5.41384L15.1991 8.35521L8.52793 14.9391C0.201597 23.1565 -2.28899 35.5132 2.21703 46.2497C3.13693 48.441 5.26045 49.8911 7.6452 49.99C10.5693 41.4526 25.5634 28.5137 25.5634 28.5137L30.5941 23.5488L33.5734 26.489C34.9526 27.8503 37.3149 26.9791 37.4511 25.0578L39.0533 2.40135C39.1502 1.04123 38.0051 -0.0888693 36.6258 0.0055835Z" fill="url(#paint0_linear_5_1040)"/>
<path d="M7.64516 49.99C7.64404 49.9933 7.64291 49.9967 7.64178 50H7.90413H30.1077C31.3642 50 32.3821 48.9955 32.3821 47.7554V30.7583C32.3821 29.5182 31.3642 28.5136 30.1077 28.5136H25.5634C25.5634 28.5136 10.5692 41.4526 7.64516 49.99Z" fill="url(#paint1_linear_5_1040)"/>
<path d="M54.8682 35.9977V8.15741H68.0688C69.6034 8.15741 70.9883 8.523 72.2224 9.25306C73.4564 9.98313 74.4495 10.9643 75.2039 12.1955C75.9571 13.4268 76.3343 14.7724 76.3343 16.2337V16.8426C76.3343 18.3305 75.9571 19.704 75.2039 20.9619C74.4495 22.2198 73.4564 23.221 72.2224 23.9655C70.9883 24.71 69.6034 25.0822 68.0688 25.0822H60.7074V35.9988H54.8682V35.9977ZM60.7074 20.5352H66.4643C67.204 20.5352 67.8627 20.3663 68.4381 20.0285C69.0134 19.6907 69.4728 19.2239 69.8162 18.6283C70.1585 18.0338 70.3308 17.3571 70.3308 16.5993C70.3308 15.8959 70.1664 15.2469 69.8376 14.6513C69.5088 14.0568 69.0562 13.5757 68.4809 13.2112C67.9055 12.8456 67.2333 12.6634 66.4654 12.6634H60.7085V20.5352H60.7074Z" fill="#323232"/>
<path d="M86.1615 36.4044C84.0233 36.4044 82.3502 35.9043 81.1443 34.9031C79.9373 33.903 79.3349 32.4007 79.3349 30.3983C79.3349 28.7748 79.7796 27.4558 80.6714 26.4412C81.562 25.4267 82.9739 24.6833 84.9072 24.2088C86.8404 23.7354 89.3693 23.4988 92.4949 23.4988V21.5097C92.4949 20.4818 92.2067 19.7106 91.6313 19.1962C91.056 18.6828 90.1372 18.425 88.8761 18.425C87.6973 18.425 86.7853 18.675 86.1412 19.1762C85.4972 19.6773 85.1752 20.3729 85.1752 21.2663V21.5908H80.0352C80.0071 21.3208 79.9801 21.0908 79.953 20.9008C79.953 20.9285 79.953 20.9152 79.953 20.8607C79.953 19.0217 80.7817 17.5605 82.4414 16.477C84.0999 15.3947 86.3135 14.8535 89.0822 14.8535C92.0153 14.8535 94.2491 15.4014 95.7849 16.497C97.3196 17.5927 98.0875 19.2506 98.0875 21.4686V31.5328C98.0875 31.9384 98.1832 32.2362 98.3757 32.4262C98.5671 32.6162 98.8283 32.7107 99.1571 32.7107C99.6503 32.7107 100.088 32.5896 100.473 32.3451V35.6321C100.089 35.8754 99.5962 36.0643 98.9927 36.1999C98.3892 36.3355 97.7587 36.4032 97.1011 36.4032C96.1689 36.4032 95.4145 36.2943 94.8391 36.0788C94.2638 35.8621 93.8382 35.5309 93.5645 35.0842C93.2898 34.6375 93.1119 34.0497 93.0297 33.3185C92.5636 34.0219 91.995 34.6042 91.3228 35.0642C90.6506 35.5243 89.8838 35.8621 89.0202 36.0788C88.1567 36.2955 87.203 36.4044 86.1615 36.4044ZM88.0947 32.7518C89.054 32.7518 89.8557 32.5429 90.5009 32.1229C91.1449 31.7039 91.6381 31.1228 91.9815 30.3783C92.3238 29.6349 92.496 28.8026 92.496 27.8825V26.4212C90.6315 26.4212 89.1441 26.5424 88.0339 26.7868C86.9237 27.0302 86.1221 27.4091 85.6278 27.9236C85.1346 28.4381 84.8869 29.1282 84.8869 29.9938C84.8869 30.9139 85.147 31.6039 85.6683 32.064C86.1885 32.5218 86.9981 32.7518 88.0947 32.7518Z" fill="#323232"/>
<path d="M108.285 43.5472C107.599 43.5472 106.969 43.4994 106.394 43.405C105.818 43.3094 105.297 43.1683 104.831 42.9783V39.1224C105.131 39.2579 105.543 39.3857 106.065 39.508C106.585 39.6302 107.093 39.6913 107.586 39.6913C108.381 39.6913 108.991 39.5224 109.416 39.1835C109.84 38.8446 110.197 38.3645 110.485 37.7422C110.773 37.12 111.082 36.3755 111.411 35.5098L103.392 15.258H109.437L114.29 28.8537H114.536L119.141 15.258H124.693L117.085 34.9409C116.482 36.5377 115.791 37.9845 115.009 39.2835C114.228 40.5825 113.296 41.617 112.214 42.3882C111.129 43.1616 109.82 43.5472 108.285 43.5472Z" fill="#323232"/>
<path d="M130.162 35.9977V19.3995H126.585V15.2603H130.162V11.8922C130.162 10.5932 130.416 9.55197 130.923 8.76746C131.43 7.98294 132.101 7.40178 132.939 7.02175C133.774 6.64282 134.713 6.45392 135.756 6.45392C136.469 6.45392 137.146 6.5217 137.792 6.65727C138.436 6.79284 138.991 6.99619 139.457 7.26621V10.5532C139.1 10.4176 138.737 10.3098 138.367 10.2287C137.997 10.1476 137.674 10.1076 137.401 10.1076C137.072 10.1076 136.764 10.1754 136.475 10.3109C136.187 10.4465 135.962 10.6765 135.798 11.001C135.633 11.3255 135.551 11.7855 135.551 12.3811V15.2625H139.458V19.4017H135.551V36.001H130.162V35.9977ZM141.553 35.9977V6.77728H146.941V35.9977H141.553Z" fill="#323232"/>
<path d="M161.004 36.4044C158.784 36.4044 157.008 35.7954 155.678 34.5775C154.349 33.3597 153.684 31.5473 153.684 29.1393V15.2592H159.318V28.2059C159.318 29.586 159.654 30.6139 160.326 31.2906C160.997 31.9673 161.896 32.3051 163.019 32.3051C163.786 32.3051 164.465 32.1295 165.055 31.7773C165.644 31.4261 166.11 30.925 166.454 30.276C166.796 29.6271 166.968 28.8959 166.968 28.0847V15.2592H172.561V31.5328C172.561 31.9662 172.656 32.2707 172.849 32.4462C173.04 32.6218 173.287 32.7096 173.589 32.7096C173.835 32.7096 174.068 32.6896 174.288 32.6485C174.507 32.6074 174.74 32.5062 174.987 32.344V35.631C174.63 35.8743 174.13 36.0632 173.486 36.1988C172.842 36.3344 172.218 36.4021 171.615 36.4021C170.545 36.4021 169.729 36.2732 169.168 36.0166C168.606 35.7599 168.216 35.4076 167.996 34.9609C167.776 34.5142 167.626 33.9942 167.543 33.3985C167.159 33.9942 166.68 34.5142 166.104 34.9609C165.529 35.4076 164.822 35.7599 163.987 36.0166C163.149 36.2755 162.155 36.4044 161.004 36.4044Z" fill="#323232"/>
<path d="M177.165 35.9977L184.484 25.1623L177.74 15.2592H184.278L188.308 21.5497H188.431L192.46 15.2592H198.588L191.721 25.2834L198.999 35.9977H192.46L187.978 28.8948H187.814L183.291 35.9977H177.165Z" fill="#323232"/>
</g>
<defs>
<linearGradient id="paint0_linear_5_1040" x1="37.5994" y1="-0.049122" x2="-1.31213" y2="43.9278" gradientUnits="userSpaceOnUse">
<stop offset="0.00558659" stop-color="#9DCB3B"/>
<stop offset="0.4832" stop-color="#8AC640"/>
<stop offset="1" stop-color="#4F7B23"/>
</linearGradient>
<linearGradient id="paint1_linear_5_1040" x1="8.61088" y1="36.1182" x2="32.2234" y2="43.4101" gradientUnits="userSpaceOnUse">
<stop offset="0.0391" stop-color="#354D23"/>
<stop offset="0.3" stop-color="#416124"/>
<stop offset="0.5866" stop-color="#4F7B23"/>
</linearGradient>
<clipPath id="clip0_5_1040">
<rect width="199" height="50" fill="white"/>
</clipPath>
</defs>
</svg>
